<svg xmlns="http://www.w3.org/2000/svg" viewBox="0 0 250.752 324.054" fill="#0c0c0e" aria-label="Wavloops"><path d="M134.605,20.885l.135,296.721c.002,4.505,4.507,7.617,8.721,6.026l33.845-12.781c2.508-.947,4.168-3.348,4.168-6.029V6.451c0-4.617-4.713-7.736-8.963-5.932l-33.98,14.431c-2.381,1.011-3.926,3.348-3.925,5.934Z"/><path d="M2.25,114.49L0,254.396c-.072,4.506,4.399,7.681,8.629,6.128l35.65-13.091c2.526-.928,4.206-3.333,4.206-6.025V102.404c0-4.457-4.431-7.557-8.618-6.029l-33.401,12.189c-2.497.911-4.174,3.268-4.217,5.926Z"/><path d="M67.489,66.13l-.444,227.656c-.009,4.446,4.398,7.552,8.583,6.05l34.588-12.421c2.548-.915,4.247-3.33,4.247-6.037V53.279c0-4.483-4.481-7.583-8.676-6.003l-34.144,12.864c-2.495.94-4.148,3.325-4.153,5.99Z"/><path d="M204.516,98.065l-2.249,139.906c-.072,4.506,4.399,7.681,8.629,6.128l35.65-13.091c2.526-.928,4.206-3.333,4.206-6.025V85.979c0-4.457-4.431-7.557-8.618-6.029l-33.401,12.189c-2.497.911-4.174,3.268-4.217,5.926Z"/></svg>
